# xmcd
#
# Track frame offsets: 
#        150
#        9602
#        26952
#        44592
#        63580
#        80670
#        98650
#        116542
#        130172
#        145897
#
# Disc length: 2174 seconds
#
# Revision: 4
# Processed by: cddbd v1.5.2PL0 Copyright (c) Steve Scherf et al.
# Submitted via: ExactAudioCopy v1.0b3
#
DISCID=8b087c0a
DTITLE=UFO - NO PLACE TO RUN (REMASTERED)
DYEAR=1980
DGENRE=Hard Rock
TTITLE0=Alpha Centauri
TTITLE1=Lettin' Go
TTITLE2=Mystery Train
TTITLE3=This Fire Burns Tonight
TTITLE4=Gone In The Night
TTITLE5=Young Blood
TTITLE6=No Place To Run
TTITLE7=Take It Or Leave It
TTITLE8=Money Money
TTITLE9=Any Day
EXTD=
EXTT0=
EXTT1=
EXTT2=
EXTT3=
EXTT4=
EXTT5=
EXTT6=
EXTT7=
EXTT8=
EXTT9=
PLAYORDER=
